<?xml version="1.0" encoding="utf-8"?>
<!-- Generator: Adobe Illustrator 22.1.0, SVG Export Plug-In . SVG Version: 6.00 Build 0)  -->
<svg version="1.1" id="Layer_1" xmlns="http://www.w3.org/2000/svg" xmlns:xlink="http://www.w3.org/1999/xlink" x="0px" y="0px"
	 viewBox="0 0 12.5 12.8" style="enable-background:new 0 0 12.5 12.8;" xml:space="preserve">
<style type="text/css">
	.st0{stroke:#000000;stroke-miterlimit:10;}
</style>
<title>angle-left</title>
<title>angle-left</title>
<path class="st0" d="M3.3,4.5L3.3,4.5c-0.5,0-1-0.4-1-1l0,0c0-0.5,0.4-1,1-1l0,0c0.5,0,1,0.4,1,1l0,0C4.3,4.1,3.9,4.5,3.3,4.5z"/>
<path class="st0" d="M3.4,10.2L3.4,10.2c-0.5,0-1-0.4-1-1l0,0c0-0.5,0.4-1,1-1l0,0c0.5,0,1,0.4,1,1l0,0C4.4,9.8,4,10.2,3.4,10.2z"/>
<path class="st0" d="M9.2,10.2L9.2,10.2c-0.5,0-1-0.4-1-1l0,0c0-0.5,0.4-1,1-1l0,0c0.5,0,1,0.4,1,1l0,0C10.2,9.8,9.7,10.2,9.2,10.2z
	"/>
</svg>
