<?xml version="1.0" encoding="utf-8"?>
<!-- Generator: Adobe Illustrator 22.1.0, SVG Export Plug-In . SVG Version: 6.00 Build 0)  -->
<svg version="1.1" id="Layer_1" xmlns="http://www.w3.org/2000/svg" xmlns:xlink="http://www.w3.org/1999/xlink" x="0px" y="0px"
	 viewBox="0 0 24 24" style="enable-background:new 0 0 24 24;" xml:space="preserve">
<path d="M9,20.9c0,0.8,0,1.5,0,2.3c0,0.4-0.4,0.6-0.9,0.4c-1.1-0.4-2.1-0.9-3-1.5c-2.9-2.1-4.6-4.9-5-8.5c-0.6-6,3.2-11.4,9-12.8
	C15.3-0.8,21.7,2.8,23.5,9c1.8,6.1-1.6,12.6-7.6,14.6c-0.6,0.2-0.9-0.1-0.9-0.7c0-1,0-2,0-2.9c0-0.9-0.1-1.7-0.8-2.4
	c0.6-0.1,1.3-0.3,1.9-0.4c2-0.6,3.1-2,3.4-4.1c0.1-0.8,0.2-1.6,0-2.3c-0.2-0.8-0.5-1.5-1-2.1c-0.1-0.1-0.1-0.2-0.1-0.4
	c0.3-0.9,0.2-1.9-0.1-2.8c-0.1-0.2-0.2-0.2-0.3-0.2c-0.6,0-1.1,0.2-1.6,0.4c-0.4,0.2-0.8,0.5-1.3,0.7c-0.1,0.1-0.2,0.1-0.4,0.1
	C12.9,6,11.1,6,9.2,6.5c-0.1,0-0.3,0-0.4-0.1C8.1,5.9,7.3,5.5,6.5,5.3c-0.7-0.1-0.8-0.1-1,0.6c-0.2,0.8-0.2,1.6,0,2.4
	c0,0.1,0,0.2-0.1,0.3c-1,1.1-1.2,2.4-1.1,3.8C4.4,13.2,4.6,14,5,14.8c0.7,1.4,1.9,2.2,3.4,2.5c0.4,0.1,0.9,0.2,1.4,0.3
	c-0.1,0.1-0.2,0.2-0.2,0.3c-0.2,0.4-0.3,0.8-0.5,1.1c0,0.1-0.1,0.2-0.2,0.2c-1.3,0.6-2.5,0.2-3.3-1c-0.4-0.6-0.9-1.1-1.7-1.2
	c-0.2,0-0.4,0-0.5,0c-0.2,0.1-0.3,0.2-0.1,0.4c0.1,0.1,0.2,0.2,0.3,0.3c0.6,0.4,1,0.9,1.3,1.5c0.4,1.2,1.5,1.9,3,1.8
	C8.2,21,8.6,20.9,9,20.9z"/>
</svg>
