<?xml version="1.0" encoding="utf-8"?>
<!-- Generator: Adobe Illustrator 22.1.0, SVG Export Plug-In . SVG Version: 6.00 Build 0)  -->
<svg version="1.1" id="Layer_1" xmlns="http://www.w3.org/2000/svg" xmlns:xlink="http://www.w3.org/1999/xlink" x="0px" y="0px"
	 viewBox="0 0 500 500" style="enable-background:new 0 0 500 500;" xml:space="preserve">
<style type="text/css">
	.st0{fill:#F3F5F7;}
	.st1{fill:#E4E8EA;}
</style>
<title>default</title>
<rect class="st0" width="500" height="500"/>
<path class="st1" d="M378.6,359.7c-2.6,4.9-7.6,4.5-12.2,4.5c-38.6,0-77.2,0-115.7,0s-76.9,0-115.4,0c-2.8,0.1-5.6-0.3-8.2-0.9
	c-4.8-1.2-7.6-6.1-6.4-10.9v-0.1c0.5-2.2,1.3-4.3,2.3-6.3c20.9-41.5,41.8-82.9,62.8-124.4c5.9-11.6,14-12.3,22-1.8
	c20.5,26.8,41,53.6,61.6,80.4c1.4,2,3.1,3.8,4.9,5.5c6.7,5.6,15.2,4.9,22-1.8c5.4-5.3,10.6-10.9,16.1-16.1
	c7.1-6.6,16.2-5.8,22.4,1.6c0.8,1,1.6,2.1,2.4,3.2c12.7,18.1,25.4,36.2,38.1,54.4C378,350.7,381.2,354.7,378.6,359.7z"/>
<path class="st1" d="M335.8,173.6c-0.1,20.7-17,37.5-37.7,37.4s-37.5-17-37.4-37.7s17-37.5,37.7-37.4
	C319.2,135.9,335.9,152.8,335.8,173.6z"/>
</svg>
